<svg xmlns="http://www.w3.org/2000/svg" width="25" height="25" viewBox="0 0 25 25" fill="none">
    <path
        d="M14.8809 13.4389C15.2236 13.0284 15.4421 12.5287 15.5109 11.9984C15.5797 11.468 15.4959 10.9291 15.2693 10.4447C15.0427 9.96032 14.6827 9.55059 14.2315 9.26354C13.7803 8.97649 13.2566 8.82403 12.7218 8.82403C12.187 8.82403 11.6633 8.97649 11.2121 9.26354C10.7609 9.55059 10.4009 9.96032 10.1743 10.4447C9.9477 10.9291 9.86387 11.468 9.93267 11.9984C10.0015 12.5287 10.22 13.0284 10.5627 13.4389C10.1785 13.57 9.84115 13.8109 9.59242 14.1317C9.40001 14.3771 9.26662 14.6634 9.20257 14.9685C9.13852 15.2736 9.14552 15.5894 9.22305 15.8914L10.3649 20.3914C10.4805 20.84 10.7426 21.2372 11.1096 21.5198C11.4767 21.8025 11.9276 21.9544 12.3909 21.9514H13.0584C13.5211 21.9537 13.9714 21.8015 14.3379 21.519C14.7044 21.2364 14.9661 20.8396 15.0815 20.3914L16.2234 15.8914C16.3009 15.5894 16.3079 15.2736 16.2438 14.9685C16.1798 14.6634 16.0464 14.3771 15.854 14.1317C15.6045 13.8104 15.2661 13.5695 14.8809 13.4389ZM12.7246 9.95142C13.0584 9.95142 13.3846 10.0504 13.6621 10.2358C13.9396 10.4212 14.1559 10.6848 14.2837 10.9931C14.4114 11.3015 14.4448 11.6408 14.3797 11.9681C14.3146 12.2955 14.1539 12.5962 13.9179 12.8322C13.6819 13.0682 13.3812 13.2289 13.0538 13.294C12.7265 13.3591 12.3872 13.3257 12.0788 13.198C11.7705 13.0702 11.5069 12.854 11.3215 12.5764C11.1361 12.2989 11.0371 11.9727 11.0371 11.6389C11.0371 11.1914 11.2149 10.7621 11.5314 10.4457C11.8478 10.1292 12.2771 9.95142 12.7246 9.95142ZM15.133 15.6139L13.9912 20.1139C13.9371 20.3196 13.8161 20.5013 13.6471 20.6303C13.4781 20.7594 13.271 20.8284 13.0584 20.8264H12.3909C12.1775 20.8294 11.9692 20.7609 11.7993 20.6318C11.6294 20.5027 11.5076 20.3203 11.4534 20.1139L10.3115 15.6139C10.2767 15.4781 10.2737 15.336 10.3027 15.1988C10.3316 15.0616 10.3917 14.9329 10.4784 14.8227C10.5685 14.7056 10.6844 14.6108 10.817 14.5458C10.9497 14.4807 11.0956 14.4472 11.2434 14.4477H14.1965C14.3442 14.4472 14.4901 14.4807 14.6228 14.5458C14.7555 14.6108 14.8714 14.7056 14.9615 14.8227C15.0489 14.9325 15.1099 15.061 15.1397 15.1983C15.1694 15.3355 15.1671 15.4777 15.133 15.6139ZM18.1621 12.3889C18.1615 11.6174 17.9967 10.8548 17.6787 10.1518C17.3606 9.4489 16.8967 8.82168 16.3175 8.31186C15.7384 7.80205 15.0574 7.42132 14.3198 7.19497C13.5823 6.96861 12.8049 6.90182 12.0395 6.99903C11.2741 7.09624 10.5382 7.35522 9.88059 7.75877C9.223 8.16231 8.65881 8.70119 8.22552 9.33958C7.79223 9.97797 7.49976 10.7013 7.36755 11.4614C7.23533 12.2215 7.26639 13.0011 7.45867 13.7483C7.47714 13.8198 7.48134 13.8943 7.47103 13.9674C7.46071 14.0406 7.4361 14.111 7.39857 14.1746C7.36105 14.2383 7.31137 14.2939 7.25235 14.3383C7.19333 14.3828 7.12614 14.4151 7.05461 14.4336C6.98308 14.4521 6.90861 14.4563 6.83546 14.446C6.76231 14.4357 6.69191 14.411 6.62827 14.3735C6.56463 14.336 6.50901 14.2863 6.46457 14.2273C6.42014 14.1683 6.38777 14.1011 6.3693 14.0295C6.11972 13.06 6.09528 12.0462 6.29784 11.0658C6.50041 10.0853 6.92461 9.16423 7.53797 8.37298C8.15134 7.58173 8.93761 6.9413 9.8366 6.50072C10.7356 6.06013 11.7235 5.83107 12.7246 5.83107C13.7258 5.83107 14.7136 6.06013 15.6126 6.50072C16.5116 6.9413 17.2979 7.58173 17.9113 8.37298C18.5246 9.16423 18.9488 10.0853 19.1514 11.0658C19.3539 12.0462 19.3295 13.06 19.0799 14.0295C19.0488 14.15 18.9787 14.2567 18.8805 14.3331C18.7823 14.4094 18.6615 14.451 18.5371 14.4514C18.4897 14.4515 18.4424 14.4455 18.3965 14.4336C18.3249 14.4152 18.2576 14.383 18.1984 14.3386C18.1393 14.2942 18.0895 14.2386 18.0519 14.1749C18.0143 14.1113 17.9896 14.0408 17.9792 13.9676C17.9689 13.8944 17.973 13.8199 17.9915 13.7483C18.1056 13.3042 18.1629 12.8474 18.1621 12.3889ZM22.2871 12.3889C22.2884 13.9669 21.8987 15.5206 21.1529 16.9111C20.407 18.3017 19.3283 19.4858 18.013 20.3577C17.8887 20.4403 17.7367 20.4702 17.5903 20.4408C17.4439 20.4113 17.3153 20.325 17.2326 20.2006C17.1499 20.0763 17.12 19.9243 17.1495 19.7779C17.1789 19.6315 17.2653 19.5028 17.3896 19.4202C18.8999 18.4181 20.0473 16.9563 20.662 15.2513C21.2767 13.5462 21.3261 11.6886 20.8027 9.95331C20.2794 8.21805 19.2112 6.69743 17.7563 5.61657C16.3014 4.53571 14.5371 3.95208 12.7246 3.95208C10.9121 3.95208 9.14786 4.53571 7.69294 5.61657C6.23803 6.69743 5.16983 8.21805 4.64649 9.95331C4.12316 11.6886 4.1725 13.5462 4.78722 15.2513C5.40195 16.9563 6.54937 18.4181 8.05961 19.4202C8.18393 19.5028 8.27032 19.6315 8.29977 19.7779C8.32922 19.9243 8.29931 20.0763 8.21664 20.2006C8.13397 20.325 8.0053 20.4113 7.85893 20.4408C7.71256 20.4702 7.56049 20.4403 7.43617 20.3577C6.0588 19.4434 4.94198 18.1876 4.19472 16.7129C3.44746 15.2383 3.09528 13.595 3.17256 11.9436C3.24984 10.2922 3.75394 8.68907 4.63565 7.29062C5.51736 5.89216 6.74657 4.74618 8.20331 3.96452C9.66005 3.18286 11.2946 2.79222 12.9473 2.83072C14.6001 2.86922 16.2146 3.33555 17.6334 4.1842C19.0521 5.03286 20.2267 6.23483 21.0423 7.67283C21.8579 9.11082 22.2868 10.7357 22.2871 12.3889Z"
        fill="black" />
</svg>