<svg xmlns="http://www.w3.org/2000/svg" width="28" height="27" viewBox="0 0 28 27" fill="none">
    <path
        d="M13.4777 13.5138L17.4404 9.55108C17.6489 9.34134 17.7659 9.05763 17.7659 8.7619C17.7659 8.46617 17.6489 8.18245 17.4404 7.97272C17.3363 7.8678 17.2125 7.78452 17.0761 7.72769C16.9397 7.67086 16.7934 7.6416 16.6456 7.6416C16.4978 7.6416 16.3515 7.67086 16.2151 7.72769C16.0787 7.78452 15.9549 7.8678 15.8508 7.97272L11.1046 12.719C10.9996 12.8231 10.9164 12.9469 10.8595 13.0833C10.8027 13.2197 10.7734 13.366 10.7734 13.5138C10.7734 13.6615 10.8027 13.8079 10.8595 13.9443C10.9164 14.0807 10.9996 14.2045 11.1046 14.3085L15.8508 19.1108C15.9554 19.2145 16.0795 19.2966 16.2159 19.3523C16.3522 19.408 16.4983 19.4363 16.6456 19.4354C16.7929 19.4363 16.939 19.408 17.0753 19.3523C17.2117 19.2966 17.3358 19.2145 17.4404 19.1108C17.6489 18.901 17.7659 18.6173 17.7659 18.3216C17.7659 18.0259 17.6489 17.7422 17.4404 17.5324L13.4777 13.5138Z"
        fill="#B6B6B6" />
</svg>