<svg xmlns="http://www.w3.org/2000/svg" width="28" height="27" viewBox="0 0 28 27" fill="none">
    <path
        d="M10.4407 7.91705C10.2323 8.12679 10.1152 8.4105 10.1152 8.70623C10.1152 9.00196 10.2323 9.28568 10.4407 9.49541L14.4034 13.5141L10.4407 17.4768C10.2323 17.6865 10.1152 17.9702 10.1152 18.2659C10.1152 18.5617 10.2323 18.8454 10.4407 19.0551C10.5448 19.16 10.6686 19.2433 10.805 19.3001C10.9414 19.357 11.0878 19.3862 11.2355 19.3862C11.3833 19.3862 11.5296 19.357 11.666 19.3001C11.8024 19.2433 11.9262 19.16 12.0303 19.0551L16.7766 14.3088C16.8815 14.2048 16.9648 14.081 17.0216 13.9446C17.0784 13.8082 17.1077 13.6618 17.1077 13.5141C17.1077 13.3663 17.0784 13.22 17.0216 13.0836C16.9648 12.9472 16.8815 12.8234 16.7766 12.7193L12.0303 7.91705C11.9262 7.81213 11.8024 7.72886 11.666 7.67203C11.5296 7.6152 11.3833 7.58593 11.2355 7.58593C11.0877 7.58593 10.9414 7.6152 10.805 7.67203C10.6686 7.72886 10.5448 7.81213 10.4407 7.91705Z"
        fill="#B6B6B6" />
</svg>