<svg xmlns="http://www.w3.org/2000/svg" width="20" height="20" viewBox="0 0 20 20" fill="none">
    <path
      d="M14.5833 3.75C12.9583 3.75 11.2083 4.08333 9.99992 5C8.79159 4.08333 7.04159 3.75 5.41659 3.75C4.20825 3.75 2.92492 3.93333 1.84992 4.40833C1.24159 4.68333 0.833252 5.275 0.833252 5.95V15.35C0.833252 16.4333 1.84992 17.2333 2.89992 16.9667C3.71659 16.7583 4.58325 16.6667 5.41659 16.6667C6.71659 16.6667 8.09992 16.8833 9.21659 17.4333C9.71659 17.6833 10.2833 17.6833 10.7749 17.4333C11.8916 16.875 13.2749 16.6667 14.5749 16.6667C15.4083 16.6667 16.2749 16.7583 17.0916 16.9667C18.1416 17.2417 19.1583 16.4417 19.1583 15.35V5.95C19.1583 5.275 18.7499 4.68333 18.1416 4.40833C17.0749 3.93333 15.7916 3.75 14.5833 3.75ZM17.4999 14.3583C17.4999 14.8833 17.0166 15.2667 16.4999 15.175C15.8749 15.0583 15.2249 15.0083 14.5833 15.0083C13.1666 15.0083 11.1249 15.55 9.99992 16.2583V6.66667C11.1249 5.95833 13.1666 5.41667 14.5833 5.41667C15.3499 5.41667 16.1083 5.49167 16.8333 5.65C17.2166 5.73333 17.4999 6.075 17.4999 6.46667V14.3583Z"
      fill="black"
    />
    <path
      d="M11.65 9.17455C11.3833 9.17455 11.1416 9.00789 11.0583 8.74122C10.95 8.41622 11.1333 8.05789 11.4583 7.95789C12.7416 7.54122 14.4 7.40789 15.925 7.58289C16.2666 7.62455 16.5166 7.93289 16.475 8.27455C16.4333 8.61622 16.125 8.86622 15.7833 8.82455C14.4333 8.66622 12.9583 8.79122 11.8416 9.14955C11.775 9.15789 11.7083 9.17455 11.65 9.17455ZM11.65 11.3912C11.3833 11.3912 11.1416 11.2246 11.0583 10.9579C10.95 10.6329 11.1333 10.2746 11.4583 10.1746C12.7333 9.75789 14.4 9.62455 15.925 9.79955C16.2666 9.84122 16.5166 10.1496 16.475 10.4912C16.4333 10.8329 16.125 11.0829 15.7833 11.0412C14.4333 10.8829 12.9583 11.0079 11.8416 11.3662C11.779 11.3822 11.7146 11.3906 11.65 11.3912ZM11.65 13.6079C11.3833 13.6079 11.1416 13.4412 11.0583 13.1746C10.95 12.8496 11.1333 12.4912 11.4583 12.3912C12.7333 11.9746 14.4 11.8412 15.925 12.0162C16.2666 12.0579 16.5166 12.3662 16.475 12.7079C16.4333 13.0496 16.125 13.2912 15.7833 13.2579C14.4333 13.0996 12.9583 13.2246 11.8416 13.5829C11.779 13.5989 11.7146 13.6072 11.65 13.6079Z"
      fill="black"
    />
  </svg>