<svg xmlns="http://www.w3.org/2000/svg" width="20" height="21" viewBox="0 0 20 21" fill="none">
    <path fill-rule="evenodd" clip-rule="evenodd"
        d="M5.22587 2.26033C4.55087 2.34866 4.19421 2.51116 3.93921 2.76033C3.68504 3.01033 3.51921 3.36033 3.42837 4.02116C3.33504 4.70199 3.33337 5.60366 3.33337 6.89616V14.0378C3.66313 13.8121 4.02932 13.6449 4.41587 13.5437C4.85587 13.4278 5.36921 13.4278 6.12171 13.4287H16.6667V6.89699C16.6667 5.60366 16.665 4.70199 16.5717 4.02116C16.4809 3.36033 16.315 3.01033 16.0609 2.76033C15.8059 2.51116 15.4492 2.34866 14.7742 2.26033C14.0792 2.16866 13.1592 2.16699 11.8392 2.16699H8.16087C6.84087 2.16699 5.92087 2.16866 5.22587 2.26033ZM5.63254 5.99616C5.63254 5.62282 5.94087 5.32032 6.32171 5.32032H13.6784C13.8592 5.31877 14.0332 5.38893 14.1624 5.51545C14.2916 5.64197 14.3653 5.81453 14.3675 5.99532C14.3656 6.17627 14.2919 6.34904 14.1627 6.47574C14.0335 6.60243 13.8593 6.67271 13.6784 6.67116H6.32171C6.1409 6.67272 5.96685 6.60255 5.83768 6.47603C5.7085 6.34951 5.63474 6.17696 5.63254 5.99616ZM6.32171 8.47366C6.1409 8.4721 5.96685 8.54227 5.83768 8.66879C5.7085 8.7953 5.63474 8.96786 5.63254 9.14866C5.63254 9.52199 5.94087 9.82449 6.32171 9.82449H10.9192C11.1002 9.82627 11.2744 9.7562 11.4038 9.62966C11.5331 9.50312 11.607 9.33043 11.6092 9.14949C11.6072 8.9684 11.5334 8.79551 11.4041 8.66878C11.2747 8.54206 11.1003 8.47188 10.9192 8.47366H6.32171Z"
        fill="#FC744A" />
    <path
        d="M6.22756 14.7793H16.6667C16.6642 15.721 16.6492 16.4243 16.5726 16.9793C16.4817 17.6401 16.3159 17.9901 16.0617 18.2401C15.8067 18.4893 15.4501 18.6518 14.7751 18.7401C14.0801 18.8318 13.1601 18.8335 11.8401 18.8335H8.1609C6.8409 18.8335 5.9209 18.8318 5.2259 18.741C4.5509 18.6518 4.19423 18.4893 3.93923 18.2401C3.68507 17.9901 3.51923 17.6401 3.4284 16.9793C3.39423 16.7293 3.37173 16.4485 3.3584 16.1293C3.47287 15.8173 3.66136 15.5377 3.90768 15.3146C4.154 15.0916 4.45079 14.9316 4.77257 14.8485C5.01423 14.7851 5.3284 14.7793 6.22756 14.7793Z"
        fill="#FC744A" />
</svg>