<svg xmlns="http://www.w3.org/2000/svg" width="25" height="24" viewBox="0 0 25 24" fill="none">
    <path
        d="M15.165 2.33015C15.3428 2.24123 15.5487 2.22658 15.7373 2.28939C15.9259 2.35221 16.0819 2.48737 16.1709 2.66515L18.372 7.06715C19.725 7.17115 20.5739 7.43715 21.122 8.11415C21.558 8.65315 21.698 9.32315 21.6469 10.2501H3.35295C3.30195 9.32315 3.44295 8.65315 3.87795 8.11415C4.42595 7.43615 5.27495 7.17115 6.62795 7.06715L8.82895 2.66515C8.91872 2.48878 9.07457 2.35504 9.26252 2.29307C9.45047 2.23111 9.65529 2.24594 9.83236 2.33434C10.0094 2.42274 10.1444 2.57754 10.2078 2.76501C10.2712 2.95247 10.258 3.1574 10.171 3.33515L8.33595 7.00515C8.81895 7.00015 9.34595 7.00015 9.92195 7.00015H15.078C15.654 7.00015 16.181 7.00015 16.6639 7.00515L14.829 3.33515C14.7401 3.15719 14.7256 2.95122 14.7886 2.76256C14.8516 2.5739 14.987 2.419 15.165 2.33015Z"
        fill="#000"
    />
    <path
        fill-rule="evenodd"
        clip-rule="evenodd"
        d="M4.05492 14.257C3.87046 13.4243 3.70043 12.5885 3.54492 11.75H21.4549C21.2993 12.5885 21.1293 13.4243 20.9449 14.257L20.5159 16.257C20.0289 18.53 19.7859 19.666 18.9609 20.333C18.1359 21 16.9739 21 14.6499 21H10.3499C8.02592 21 6.86392 21 6.03992 20.333C5.21392 19.666 4.96992 18.53 4.48392 16.257L4.05492 14.257ZM10.4999 13.25C10.301 13.25 10.1102 13.329 9.96959 13.4697C9.82894 13.6103 9.74992 13.8011 9.74992 14C9.74992 14.1989 9.82894 14.3897 9.96959 14.5303C10.1102 14.671 10.301 14.75 10.4999 14.75H14.4999C14.6988 14.75 14.8896 14.671 15.0303 14.5303C15.1709 14.3897 15.2499 14.1989 15.2499 14C15.2499 13.8011 15.1709 13.6103 15.0303 13.4697C14.8896 13.329 14.6988 13.25 14.4999 13.25H10.4999Z"
        fill="#000"
    />
</svg>