<svg xmlns="http://www.w3.org/2000/svg" width="28" height="27" viewBox="0 0 28 27" fill="none">
    <path
        d="M9.61779 9.36102C9.407 9.14429 9.11875 9.02018 8.81646 9.01598C8.51416 9.01178 8.22257 9.12784 8.00585 9.33863C7.78912 9.54942 7.66501 9.83767 7.66081 10.14C7.65661 10.4423 7.77267 10.7338 7.98346 10.9506L10.6029 13.514L7.98346 16.0774C7.87854 16.1815 7.79526 16.3053 7.73843 16.4417C7.6816 16.5781 7.65234 16.7244 7.65234 16.8722C7.65234 17.02 7.6816 17.1663 7.73843 17.3027C7.79526 17.4391 7.87854 17.5629 7.98346 17.667C8.08752 17.7719 8.21133 17.8552 8.34774 17.912C8.48415 17.9688 8.63046 17.9981 8.77824 17.9981C8.92601 17.9981 9.07232 17.9688 9.20873 17.912C9.34514 17.8552 9.46895 17.7719 9.57301 17.667L12.9312 14.3088C13.0361 14.2047 13.1194 14.0809 13.1762 13.9445C13.2331 13.8081 13.2623 13.6618 13.2623 13.514C13.2623 13.3662 13.2331 13.2199 13.1762 13.0835C13.1194 12.9471 13.0361 12.8233 12.9312 12.7192L9.61779 9.36102ZM19.1327 12.7192L15.7745 9.36102C15.5637 9.15023 15.2778 9.03181 14.9797 9.03181C14.6816 9.03181 14.3957 9.15023 14.185 9.36102C13.9742 9.5718 13.8557 9.85769 13.8557 10.1558C13.8557 10.4539 13.9742 10.7398 14.185 10.9506L16.7596 13.514L14.185 16.0774C14.08 16.1815 13.9968 16.3053 13.9399 16.4417C13.8831 16.5781 13.8538 16.7244 13.8538 16.8722C13.8538 17.02 13.8831 17.1663 13.9399 17.3027C13.9968 17.4391 14.08 17.5629 14.185 17.667C14.289 17.7719 14.4128 17.8552 14.5492 17.912C14.6856 17.9688 14.832 17.9981 14.9797 17.9981C15.1275 17.9981 15.2738 17.9688 15.4102 17.912C15.5466 17.8552 15.6704 17.7719 15.7745 17.667L19.1327 14.3088C19.2406 14.2077 19.3274 14.0863 19.3881 13.9514C19.4488 13.8166 19.4822 13.6711 19.4864 13.5233C19.4906 13.3755 19.4654 13.2284 19.4124 13.0904C19.3594 12.9524 19.2795 12.8262 19.1775 12.7192H19.1327Z"
        fill="#B6B6B6" />
</svg>