<svg xmlns="http://www.w3.org/2000/svg" width="28" height="27" viewBox="0 0 28 27" fill="none">
    <path
        d="M13.6929 9.3609C13.5889 9.25598 13.4651 9.17271 13.3287 9.11588C13.1923 9.05904 13.0459 9.02979 12.8982 9.02979C12.7504 9.02979 12.6041 9.05904 12.4677 9.11588C12.3313 9.17271 12.2075 9.25598 12.1034 9.3609L8.74518 12.7191C8.64026 12.8232 8.55698 12.947 8.50015 13.0834C8.44332 13.2198 8.41406 13.3661 8.41406 13.5139C8.41406 13.6617 8.44332 13.808 8.50015 13.9444C8.55698 14.0808 8.64026 14.2046 8.74518 14.3087L12.1034 17.6669C12.2075 17.7718 12.3313 17.8551 12.4677 17.9119C12.6041 17.9687 12.7504 17.998 12.8982 17.998C13.0459 17.998 13.1923 17.9687 13.3287 17.9119C13.4651 17.8551 13.5889 17.7718 13.6929 17.6669C13.7979 17.5628 13.8811 17.439 13.938 17.3026C13.9948 17.1662 14.0241 17.0199 14.0241 16.8721C14.0241 16.7243 13.9948 16.578 13.938 16.4416C13.8811 16.3052 13.7979 16.1814 13.6929 16.0773L11.1183 13.5139L13.6929 10.9505C13.7979 10.8464 13.8811 10.7226 13.938 10.5862C13.9948 10.4498 14.0241 10.3035 14.0241 10.1557C14.0241 10.0079 13.9948 9.86159 13.938 9.72518C13.8811 9.58877 13.7979 9.46497 13.6929 9.3609ZM17.275 13.5139L19.8944 10.9505C20.1052 10.7397 20.2236 10.4538 20.2236 10.1557C20.2236 9.85758 20.1052 9.57169 19.8944 9.3609C19.6836 9.15011 19.3978 9.0317 19.0997 9.0317C18.8016 9.0317 18.5157 9.15011 18.3049 9.3609L14.9467 12.7191C14.8418 12.8232 14.7585 12.947 14.7016 13.0834C14.6448 13.2198 14.6156 13.3661 14.6156 13.5139C14.6156 13.6617 14.6448 13.808 14.7016 13.9444C14.7585 14.0808 14.8418 14.2046 14.9467 14.3087L18.3049 17.6669C18.4089 17.7718 18.5328 17.8551 18.6692 17.9119C18.8056 17.9687 18.9519 17.998 19.0997 17.998C19.2474 17.998 19.3937 17.9687 19.5302 17.9119C19.6666 17.8551 19.7904 17.7718 19.8944 17.6669C19.9994 17.5628 20.0826 17.439 20.1395 17.3026C20.1963 17.1662 20.2256 17.0199 20.2256 16.8721C20.2256 16.7243 20.1963 16.578 20.1395 16.4416C20.0826 16.3052 19.9994 16.1814 19.8944 16.0773L17.275 13.5139Z"
        fill="#B6B6B6" />
</svg>