<svg xmlns="http://www.w3.org/2000/svg" width="20" height="20" viewBox="0 0 20 20" fill="none">
    <g clip-path="url(#clip0_446_3764)">
        <path fill-rule="evenodd" clip-rule="evenodd"
            d="M17.5001 9.99967C17.7211 9.99967 17.933 10.0875 18.0893 10.2438C18.2456 10.4 18.3334 10.612 18.3334 10.833V15.833C18.3333 16.0235 18.268 16.2081 18.1483 16.3563C18.0287 16.5045 17.8619 16.6071 17.6757 16.6473C17.4895 16.6874 17.2952 16.6626 17.1251 16.5769C16.955 16.4912 16.8194 16.3498 16.7409 16.1763C16.2356 16.4855 15.6571 16.6544 15.0649 16.6657C14.4727 16.6771 13.8882 16.5304 13.3715 16.2408C12.8547 15.9512 12.4245 15.5291 12.1251 15.018C11.8257 14.507 11.6679 13.9253 11.6679 13.333C11.6679 12.7407 11.8257 12.1591 12.1251 11.648C12.4245 11.1369 12.8547 10.7149 13.3715 10.4252C13.8882 10.1356 14.4727 9.98896 15.0649 10.0003C15.6571 10.0116 16.2356 10.1805 16.7409 10.4897C16.8069 10.3436 16.9137 10.2198 17.0483 10.1329C17.1829 10.0459 17.3398 9.9997 17.5001 9.99967ZM6.66673 3.33301C7.27673 3.33301 7.81756 3.72717 8.00423 4.30801L11.6267 15.578C11.6924 15.7879 11.6725 16.0152 11.5712 16.2104C11.47 16.4056 11.2958 16.5529 11.0864 16.6202C10.8771 16.6875 10.6496 16.6693 10.4536 16.5696C10.2576 16.4699 10.109 16.2968 10.0401 16.088L8.88673 12.4997H4.44673L3.29339 16.088C3.22448 16.2968 3.07583 16.4699 2.87983 16.5696C2.68383 16.6693 2.45637 16.6875 2.24703 16.6202C2.03768 16.5529 1.86342 16.4056 1.76221 16.2104C1.661 16.0152 1.64106 15.7879 1.70673 15.578L5.32923 4.30801C5.42026 4.02484 5.59881 3.77787 5.83917 3.60265C6.07952 3.42744 6.36929 3.33303 6.66673 3.33301ZM15.0001 11.6663C14.558 11.6663 14.1341 11.8419 13.8215 12.1545C13.509 12.4671 13.3334 12.891 13.3334 13.333C13.3334 13.775 13.509 14.199 13.8215 14.5115C14.1341 14.8241 14.558 14.9997 15.0001 14.9997C15.4421 14.9997 15.866 14.8241 16.1786 14.5115C16.4911 14.199 16.6667 13.775 16.6667 13.333C16.6667 12.891 16.4911 12.4671 16.1786 12.1545C15.866 11.8419 15.4421 11.6663 15.0001 11.6663ZM6.66673 5.59301L4.98256 10.833H8.35089L6.66673 5.59301Z"
            fill="black" />
    </g>
    <defs>
        <clipPath id="clip0_446_3764">
            <rect width="20" height="20" fill="white" />
        </clipPath>
    </defs>
</svg>