<svg xmlns="http://www.w3.org/2000/svg" width="21" height="21" viewBox="0 0 21 21" fill="none">
    <path
        d="M7.37138 10.6226C7.37138 8.84559 8.81109 7.40469 10.5875 7.40469C12.364 7.40469 13.8045 8.84559 13.8045 10.6226C13.8045 12.3995 12.364 13.8404 10.5875 13.8404C8.81109 13.8404 7.37138 12.3995 7.37138 10.6226ZM5.63236 10.6226C5.63236 13.3601 7.85079 15.5792 10.5875 15.5792C13.3243 15.5792 15.5427 13.3601 15.5427 10.6226C15.5427 7.88502 13.3243 5.66595 10.5875 5.66595C7.85079 5.66595 5.63236 7.88502 5.63236 10.6226ZM14.5809 5.46941C14.5808 5.69851 14.6486 5.92249 14.7758 6.11303C14.903 6.30357 15.0838 6.45211 15.2953 6.53987C15.5069 6.62762 15.7397 6.65065 15.9644 6.60605C16.189 6.56144 16.3954 6.45121 16.5574 6.28927C16.7194 6.12734 16.8298 5.92099 16.8746 5.69631C16.9193 5.47163 16.8965 5.23872 16.8089 5.02703C16.7214 4.81533 16.573 4.63437 16.3826 4.50701C16.1923 4.37965 15.9684 4.31163 15.7394 4.31154H15.7389C15.4319 4.31168 15.1375 4.4337 14.9204 4.6508C14.7033 4.8679 14.5812 5.16233 14.5809 5.46941ZM6.68893 18.4797C5.74809 18.4369 5.23671 18.2801 4.89688 18.1477C4.44633 17.9722 4.12487 17.7633 3.78689 17.4256C3.44891 17.088 3.23969 16.7668 3.06507 16.3161C2.93259 15.9763 2.77587 15.4647 2.7331 14.5235C2.68632 13.5061 2.67698 13.2004 2.67698 10.6226C2.67698 8.04487 2.68709 7.74007 2.7331 6.72173C2.77595 5.78062 2.93382 5.26995 3.06507 4.92916C3.24046 4.47849 3.44937 4.15694 3.78689 3.81886C4.12441 3.48078 4.44556 3.2715 4.89688 3.09682C5.23656 2.96431 5.74809 2.80755 6.68893 2.76477C7.70612 2.71797 8.01168 2.70863 10.5875 2.70863C13.1634 2.70863 13.4693 2.71874 14.4873 2.76477C15.4282 2.80763 15.9387 2.96555 16.2794 3.09682C16.7299 3.2715 17.0514 3.48124 17.3894 3.81886C17.7273 4.15647 17.9358 4.47849 18.1112 4.92916C18.2437 5.26894 18.4004 5.78062 18.4431 6.72173C18.4899 7.74007 18.4993 8.04487 18.4993 10.6226C18.4993 13.2004 18.4899 13.5052 18.4431 14.5235C18.4003 15.4647 18.2428 15.9762 18.1112 16.3161C17.9358 16.7668 17.7269 17.0883 17.3894 17.4256C17.0518 17.763 16.7299 17.9722 16.2794 18.1477C15.9397 18.2802 15.4282 18.437 14.4873 18.4797C13.4701 18.5265 13.1646 18.5359 10.5875 18.5359C8.01052 18.5359 7.70581 18.5265 6.68893 18.4797ZM6.60903 1.02818C5.58172 1.07498 4.87974 1.23792 4.26669 1.47654C3.63179 1.72296 3.09432 2.05355 2.55724 2.58994C2.02016 3.12632 1.69051 3.6648 1.44417 4.29988C1.20562 4.91349 1.04272 5.61529 0.995941 6.64289C0.948385 7.67211 0.9375 8.00116 0.9375 10.6226C0.9375 13.244 0.948385 13.573 0.995941 14.6022C1.04272 15.6299 1.20562 16.3316 1.44417 16.9452C1.69051 17.5799 2.02024 18.119 2.55724 18.6552C3.09425 19.1913 3.63179 19.5215 4.26669 19.7686C4.88089 20.0072 5.58172 20.1701 6.60903 20.2169C7.63849 20.2637 7.9669 20.2754 10.5875 20.2754C13.2082 20.2754 13.5371 20.2645 14.5661 20.2169C15.5935 20.1701 16.295 20.0072 16.9084 19.7686C17.5429 19.5215 18.0808 19.1916 18.6179 18.6552C19.1549 18.1188 19.4839 17.5799 19.7309 16.9452C19.9695 16.3316 20.1331 15.6298 20.1792 14.6022C20.2259 13.5722 20.2368 13.244 20.2368 10.6226C20.2368 8.00116 20.2259 7.67211 20.1792 6.64289C20.1324 5.61521 19.9695 4.9131 19.7309 4.29988C19.4839 3.66518 19.1541 3.12717 18.6179 2.58994C18.0816 2.0527 17.5429 1.72296 16.9092 1.47654C16.295 1.23792 15.5934 1.07421 14.5668 1.02818C13.5379 0.981387 13.209 0.969727 10.5883 0.969727C7.96767 0.969727 7.63849 0.980615 6.60903 1.02818Z"
        fill="white" />
</svg>