<svg xmlns="http://www.w3.org/2000/svg" width="25" height="24" viewBox="0 0 25 24" fill="none">
    <path
        d="M18.8323 10.8403C18.8323 10.9794 18.7771 11.1129 18.6789 11.2115C18.5807 11.3101 18.4474 11.3658 18.3083 11.3663H16.8453V12.3033H18.3083C18.4475 12.3033 18.5811 12.3586 18.6795 12.4571C18.778 12.5555 18.8333 12.6891 18.8333 12.8283C18.8333 12.9675 18.778 13.1011 18.6795 13.1995C18.5811 13.298 18.4475 13.3533 18.3083 13.3533H16.3193C16.1807 13.3522 16.048 13.2965 15.9503 13.1982C15.8525 13.0999 15.7975 12.9669 15.7973 12.8283V8.85229C15.7973 8.56529 16.0323 8.32729 16.3223 8.32729H18.3103C18.4439 8.33579 18.5693 8.39493 18.6608 8.49266C18.7523 8.59038 18.8031 8.71934 18.8029 8.85323C18.8026 8.98712 18.7513 9.11588 18.6594 9.21326C18.5675 9.31063 18.4419 9.3693 18.3083 9.37729H16.8453V10.3153H18.3083C18.5983 10.3153 18.8323 10.5513 18.8323 10.8403ZM14.7353 13.3253C14.6817 13.3426 14.6256 13.3514 14.5693 13.3513C14.4869 13.353 14.4053 13.3349 14.3313 13.2985C14.2574 13.2622 14.1932 13.2086 14.1443 13.1423L12.1083 10.3783V12.8283C12.0983 12.9603 12.0388 13.0836 11.9417 13.1736C11.8446 13.2636 11.7172 13.3136 11.5848 13.3136C11.4524 13.3136 11.3249 13.2636 11.2279 13.1736C11.1308 13.0836 11.0713 12.9603 11.0613 12.8283V8.85229C11.061 8.71402 11.1156 8.58129 11.2131 8.48324C11.3106 8.38519 11.443 8.32982 11.5813 8.32929C11.6614 8.33184 11.7399 8.35219 11.8112 8.38885C11.8824 8.42552 11.9446 8.47759 11.9933 8.54129L14.0453 11.3163V8.85229C14.0453 8.56529 14.2803 8.32729 14.5703 8.32729C14.8573 8.32729 15.0953 8.56529 15.0953 8.85229V12.8283C15.095 12.9384 15.0601 13.0457 14.9955 13.1349C14.9309 13.2241 14.8398 13.2907 14.7353 13.3253ZM9.78529 13.3523C9.64665 13.3515 9.51393 13.296 9.41599 13.1979C9.31805 13.0998 9.26281 12.9669 9.26229 12.8283V8.85229C9.26229 8.56529 9.49729 8.32729 9.78729 8.32729C10.0763 8.32729 10.3113 8.56529 10.3113 8.85229V12.8283C10.3105 12.9674 10.2548 13.1005 10.1562 13.1986C10.0577 13.2968 9.92437 13.352 9.78529 13.3523ZM8.25529 13.3523H6.26829C6.12946 13.3515 5.99654 13.2961 5.89828 13.198C5.80002 13.0999 5.74434 12.9671 5.74329 12.8283V8.85229C5.74329 8.56529 5.98129 8.32729 6.26829 8.32729C6.55829 8.32729 6.79329 8.56529 6.79329 8.85229V12.3033H8.25729C8.39653 12.3033 8.53006 12.3586 8.62852 12.4571C8.72698 12.5555 8.78229 12.6891 8.78229 12.8283C8.78229 12.9675 8.72698 13.1011 8.62852 13.1995C8.53006 13.298 8.39653 13.3533 8.25729 13.3533L8.25529 13.3523ZM12.1703 2.57229C6.65729 2.57229 2.17029 6.21529 2.17029 10.6913C2.17029 14.7003 5.72829 18.0593 10.5333 18.6973C10.8583 18.7663 11.3023 18.9123 11.4143 19.1893C11.5143 19.4393 11.4803 19.8273 11.4463 20.0893L11.3093 20.9393C11.2723 21.1893 11.1093 21.9273 12.1833 21.4763C13.2593 21.0273 17.9473 18.0783 20.0473 15.6643C21.4833 14.0903 22.1693 12.4773 22.1693 10.6903C22.1693 6.21429 17.6813 2.57129 12.1693 2.57129L12.1703 2.57229Z"
        fill="#FC744A" />
</svg>