<svg xmlns="http://www.w3.org/2000/svg" width="25" height="24" viewBox="0 0 25 24" fill="none">
    <g opacity="0.3">
        <path d="M7.5 9L12.5 12.5L17.5 9" stroke="black" stroke-width="1.5" stroke-linecap="round"
            stroke-linejoin="round" />
        <path
            d="M2.5 17V7C2.5 6.46957 2.71071 5.96086 3.08579 5.58579C3.46086 5.21071 3.96957 5 4.5 5H20.5C21.0304 5 21.5391 5.21071 21.9142 5.58579C22.2893 5.96086 22.5 6.46957 22.5 7V17C22.5 17.5304 22.2893 18.0391 21.9142 18.4142C21.5391 18.7893 21.0304 19 20.5 19H4.5C3.96957 19 3.46086 18.7893 3.08579 18.4142C2.71071 18.0391 2.5 17.5304 2.5 17Z"
            stroke="black" stroke-width="1.5" />
    </g>
</svg>