<svg xmlns="http://www.w3.org/2000/svg" width="25" height="24" viewBox="0 0 25 24" fill="none">
    <path d="M20.2478 4H4.2478C3.1478 4 2.2478 4.9 2.2478 6V18C2.2478 19.1 3.1478 20 4.2478 20H20.2478C21.3478 20 22.2478 19.1 22.2478 18V6C22.2478 4.9 21.3478 4 20.2478 4ZM19.8478 8.25L13.3078 12.34C12.6578 12.75 11.8378 12.75 11.1878 12.34L4.6478 8.25C4.54753 8.19371 4.45972 8.11766 4.38969 8.02645C4.31966 7.93525 4.26887 7.83078 4.24038 7.71937C4.21189 7.60796 4.20631 7.49194 4.22396 7.37831C4.24161 7.26468 4.28214 7.15581 4.34308 7.0583C4.40403 6.96079 4.48413 6.87666 4.57853 6.811C4.67293 6.74533 4.77967 6.69951 4.8923 6.6763C5.00492 6.65309 5.12109 6.65297 5.23376 6.67595C5.34643 6.69893 5.45327 6.74453 5.5478 6.81L12.2478 11L18.9478 6.81C19.0423 6.74453 19.1492 6.69893 19.2618 6.67595C19.3745 6.65297 19.4907 6.65309 19.6033 6.6763C19.7159 6.69951 19.8227 6.74533 19.9171 6.811C20.0115 6.87666 20.0916 6.96079 20.1525 7.0583C20.2135 7.15581 20.254 7.26468 20.2716 7.37831C20.2893 7.49194 20.2837 7.60796 20.2552 7.71937C20.2267 7.83078 20.1759 7.93525 20.1059 8.02645C20.0359 8.11766 19.9481 8.19371 19.8478 8.25Z" fill="#FC744A"/>
    </svg>