<svg xmlns="http://www.w3.org/2000/svg" width="20" height="20" viewBox="0 0 20 20" fill="none">
    <path
        d="M9.175 2.54208C5.425 2.95041 2.5 6.13375 2.5 10.0004C2.5 11.9895 3.29018 13.8972 4.6967 15.3037C6.10322 16.7102 8.01088 17.5004 10 17.5004C13.8583 17.5004 17.0417 14.5837 17.4583 10.8337C17.5333 10.1754 16.8083 9.65041 16.175 10.0421C15.4947 10.4763 14.7102 10.7197 13.9037 10.7468C13.0971 10.7739 12.298 10.5837 11.5901 10.1961C10.8823 9.8085 10.2916 9.23777 9.87988 8.54363C9.46819 7.84949 9.25064 7.05746 9.25 6.25041C9.25 5.36708 9.50833 4.53375 9.95 3.84208C10.325 3.28375 9.91667 2.48375 9.175 2.54208Z"
        fill="black" />
</svg>