<svg xmlns="http://www.w3.org/2000/svg" width="24" height="25" viewBox="0 0 24 25" fill="none">
    <path
        d="M22.5 12.7759C22.5006 13.0305 22.4353 13.281 22.3105 13.5029C22.1856 13.7249 22.0055 13.9107 21.7875 14.0424L8.28 22.3055C8.05227 22.445 7.79144 22.5211 7.52445 22.5261C7.25746 22.531 6.99399 22.4646 6.76125 22.3337C6.53073 22.2048 6.3387 22.0168 6.2049 21.7891C6.07111 21.5614 6.00039 21.3022 6 21.038V4.51367C6.00039 4.24956 6.07111 3.99032 6.2049 3.76261C6.3387 3.5349 6.53073 3.34694 6.76125 3.21805C6.99399 3.08712 7.25746 3.0207 7.52445 3.02565C7.79144 3.03059 8.05227 3.10672 8.28 3.24617L21.7875 11.5093C22.0055 11.641 22.1856 11.8268 22.3105 12.0488C22.4353 12.2707 22.5006 12.5212 22.5 12.7759Z"
        fill="white" />
</svg>