<svg xmlns="http://www.w3.org/2000/svg" width="16" height="17" viewBox="0 0 16 17" fill="none">
    <path
        d="M7.36607 2.22095C8.35061 2.22084 9.31478 2.5013 10.1457 3.02946C10.9765 3.55763 11.6397 4.31163 12.0574 5.20314C12.4752 6.09464 12.6302 7.08674 12.5044 8.0632C12.3786 9.03966 11.9771 9.96004 11.347 10.7165L14.9198 14.2893C14.9818 14.3469 15.0271 14.4201 15.051 14.5013C15.0748 14.5824 15.0764 14.6685 15.0554 14.7505C15.0345 14.8324 14.9918 14.9072 14.9319 14.9669C14.872 15.0267 14.7971 15.0692 14.7151 15.0899C14.6332 15.1109 14.5472 15.1094 14.4661 15.0857C14.385 15.0619 14.3118 15.0167 14.2542 14.9549L10.6814 11.3821C10.0421 11.9144 9.28399 12.2849 8.4712 12.4623C7.65841 12.6397 6.81486 12.6187 6.0119 12.4011C5.20895 12.1835 4.4702 11.7758 3.85816 11.2123C3.24612 10.6488 2.77878 9.94625 2.49568 9.16398C2.21259 8.38171 2.12206 7.54277 2.23176 6.71812C2.34145 5.89347 2.64814 5.10736 3.12589 4.42631C3.60364 3.74525 4.23839 3.18927 4.97645 2.8054C5.7145 2.42153 6.53416 2.22106 7.36607 2.22095ZM3.1277 7.40118C3.1277 7.95777 3.23733 8.50891 3.45033 9.02314C3.66333 9.53736 3.97552 10.0046 4.36909 10.3982C4.76266 10.7917 5.2299 11.1039 5.74412 11.3169C6.25834 11.5299 6.80948 11.6396 7.36607 11.6396C7.92266 11.6396 8.47381 11.5299 8.98803 11.3169C9.50225 11.1039 9.96949 10.7917 10.3631 10.3982C10.7566 10.0046 11.0688 9.53736 11.2818 9.02314C11.4948 8.50891 11.6044 7.95777 11.6044 7.40118C11.6044 6.27709 11.1579 5.19905 10.3631 4.4042C9.56821 3.60935 8.49016 3.16281 7.36607 3.16281C6.24199 3.16281 5.16394 3.60935 4.36909 4.4042C3.57424 5.19905 3.1277 6.27709 3.1277 7.40118Z"
        fill="black" />
</svg>