<svg xmlns="http://www.w3.org/2000/svg" width="13" height="13" viewBox="0 0 13 13" fill="none">
    <path
        d="M5.43177 1.11627C6.25221 1.11618 7.05569 1.3499 7.74809 1.79003C8.44048 2.23017 8.9931 2.85851 9.34123 3.60143C9.68935 4.34435 9.81856 5.1711 9.71371 5.98481C9.60886 6.79853 9.2743 7.56552 8.74921 8.19592L11.7265 11.1732C11.7782 11.2212 11.816 11.2822 11.8359 11.3499C11.8557 11.4175 11.857 11.4892 11.8396 11.5575C11.8221 11.6258 11.7865 11.6882 11.7366 11.7379C11.6867 11.7877 11.6243 11.8231 11.556 11.8404C11.4877 11.8579 11.4161 11.8567 11.3485 11.8369C11.2809 11.8171 11.2199 11.7794 11.1719 11.7279L8.19456 8.75058C7.6618 9.19417 7.03004 9.50293 6.35271 9.65074C5.67539 9.79855 4.97243 9.78105 4.3033 9.59973C3.63416 9.41841 3.01854 9.07861 2.50851 8.60906C1.99847 8.13951 1.60903 7.55402 1.37311 6.90213C1.1372 6.25024 1.06176 5.55113 1.15317 4.86392C1.24459 4.17671 1.50016 3.52162 1.89829 2.95407C2.29641 2.38652 2.82537 1.9232 3.44041 1.60331C4.05546 1.28342 4.73851 1.11636 5.43177 1.11627ZM1.89979 5.43313C1.89979 5.89696 1.99115 6.35624 2.16865 6.78476C2.34615 7.21328 2.60631 7.60264 2.93429 7.93062C3.26226 8.25859 3.65162 8.51876 4.08014 8.69625C4.50866 8.87375 4.96794 8.96511 5.43177 8.96511C5.8956 8.96511 6.35488 8.87375 6.7834 8.69625C7.21192 8.51876 7.60128 8.25859 7.92926 7.93062C8.25723 7.60264 8.51739 7.21328 8.69489 6.78476C8.87239 6.35624 8.96375 5.89696 8.96375 5.43313C8.96375 4.49639 8.59163 3.59802 7.92926 2.93565C7.26688 2.27327 6.36851 1.90116 5.43177 1.90116C4.49503 1.90116 3.59666 2.27327 2.93429 2.93565C2.27191 3.59802 1.89979 4.49639 1.89979 5.43313Z"
        fill="#FC744A" />
</svg>