<svg xmlns="http://www.w3.org/2000/svg" width="25" height="25" viewBox="0 0 25 25" fill="none">
    <path
        d="M12.5 2.82617C10.6087 2.82617 8.75991 3.387 7.18736 4.43774C5.61482 5.48848 4.38917 6.98194 3.66541 8.72926C2.94164 10.4766 2.75227 12.3993 3.12125 14.2542C3.49022 16.1092 4.40096 17.813 5.7383 19.1504C7.07564 20.4877 8.77951 21.3985 10.6345 21.7674C12.4894 22.1364 14.4121 21.947 16.1594 21.2233C17.9067 20.4995 19.4002 19.2739 20.4509 17.7013C21.5017 16.1288 22.0625 14.28 22.0625 12.3887C22.0595 9.85345 21.0511 7.42292 19.2584 5.63025C17.4658 3.83758 15.0352 2.82915 12.5 2.82617ZM12.5 20.8262C10.8312 20.8262 9.19992 20.3313 7.81238 19.4042C6.42484 18.4771 5.34338 17.1593 4.70477 15.6176C4.06616 14.0758 3.89907 12.3793 4.22463 10.7426C4.55019 9.10588 5.35379 7.60246 6.53379 6.42246C7.7138 5.24245 9.21722 4.43886 10.8539 4.1133C12.4906 3.78773 14.1871 3.95482 15.7289 4.59344C17.2706 5.23205 18.5884 6.31351 19.5155 7.70105C20.4427 9.08859 20.9375 10.7199 20.9375 12.3887C20.935 14.6257 20.0453 16.7703 18.4635 18.3521C16.8817 19.9339 14.737 20.8237 12.5 20.8262ZM15.2478 16.2137C15.2134 16.2791 15.1664 16.337 15.1095 16.3843C15.0527 16.4315 14.987 16.4671 14.9164 16.4889C14.8458 16.5108 14.7716 16.5185 14.698 16.5116C14.6244 16.5048 14.5529 16.4835 14.4875 16.449C13.8766 16.1203 13.1937 15.9483 12.5 15.9483C11.8063 15.9483 11.1234 16.1203 10.5125 16.449C10.4471 16.4835 10.3756 16.5047 10.302 16.5115C10.2284 16.5184 10.1542 16.5106 10.0836 16.4888C10.013 16.4669 9.9474 16.4314 9.89054 16.3842C9.83367 16.337 9.78666 16.279 9.75219 16.2137C9.71772 16.1483 9.69646 16.0768 9.68963 16.0032C9.6828 15.9296 9.69053 15.8554 9.71238 15.7848C9.73423 15.7142 9.76978 15.6486 9.81698 15.5917C9.86419 15.5348 9.92213 15.4878 9.9875 15.4534C10.7618 15.0443 11.6243 14.8304 12.5 14.8304C13.3757 14.8304 14.2382 15.0443 15.0125 15.4534C15.0779 15.4878 15.1359 15.5348 15.1831 15.5917C15.2303 15.6485 15.2659 15.7141 15.2877 15.7847C15.3096 15.8554 15.3173 15.9296 15.3105 16.0032C15.3036 16.0768 15.2823 16.1483 15.2478 16.2137ZM18.2478 10.9637C18.1774 11.0952 18.0577 11.1934 17.9149 11.2366C17.7722 11.2799 17.6181 11.2646 17.4866 11.1943C15.9533 10.3736 14.241 9.94416 12.5019 9.94416C10.7627 9.94416 9.0505 10.3736 7.51719 11.1943C7.45197 11.2304 7.38024 11.2531 7.30615 11.2612C7.23206 11.2693 7.1571 11.2626 7.08563 11.2415C7.01415 11.2204 6.94758 11.1853 6.88979 11.1382C6.832 11.0912 6.78413 11.0331 6.74898 10.9674C6.71382 10.9017 6.69207 10.8296 6.685 10.7554C6.67793 10.6813 6.68567 10.6064 6.70778 10.5352C6.72988 10.464 6.76591 10.398 6.81377 10.3408C6.86163 10.2837 6.92037 10.2367 6.98657 10.2024C8.68306 9.29423 10.5776 8.81903 12.5019 8.81903C14.4262 8.81903 16.3207 9.29423 18.0172 10.2024C18.0824 10.2374 18.1401 10.285 18.1869 10.3423C18.2337 10.3996 18.2687 10.4656 18.2899 10.5365C18.3112 10.6074 18.3182 10.6818 18.3107 10.7554C18.3031 10.829 18.2811 10.9004 18.2459 10.9655L18.2478 10.9637ZM16.7478 13.5887C16.7 13.6793 16.6284 13.7551 16.5407 13.808C16.4529 13.8608 16.3524 13.8887 16.25 13.8887C16.1579 13.8885 16.0671 13.866 15.9856 13.823C14.9129 13.2509 13.7158 12.9515 12.5 12.9515C11.2842 12.9515 10.0871 13.2509 9.01438 13.823C8.94913 13.8578 8.87768 13.8793 8.80411 13.8864C8.73054 13.8935 8.65629 13.886 8.5856 13.8645C8.51491 13.8429 8.44917 13.8076 8.39212 13.7606C8.33508 13.7136 8.28785 13.6558 8.25313 13.5905C8.21841 13.5253 8.19688 13.4538 8.18978 13.3803C8.18267 13.3067 8.19013 13.2325 8.21172 13.1618C8.23331 13.0911 8.26861 13.0253 8.31561 12.9683C8.36261 12.9112 8.42038 12.864 8.48563 12.8293C9.72113 12.1704 11.0998 11.8258 12.5 11.8258C13.9002 11.8258 15.2789 12.1704 16.5144 12.8293C16.5797 12.864 16.6375 12.9112 16.6845 12.9682C16.7315 13.0253 16.7668 13.091 16.7884 13.1617C16.81 13.2324 16.8175 13.3067 16.8103 13.3803C16.8032 13.4539 16.7816 13.5253 16.7469 13.5905L16.7478 13.5887Z"
        fill="black" />
</svg>