<svg xmlns="http://www.w3.org/2000/svg" width="17" height="20" viewBox="0 0 17 20" fill="none">
    <path
        d="M14.4727 4.19754C14.3447 4.1314 14.2201 4.0589 14.0994 3.9803C13.7484 3.74822 13.4265 3.47477 13.1408 3.16583C12.4259 2.34781 12.1588 1.51793 12.0605 0.936903H12.0644C11.9823 0.45462 12.0163 0.142578 12.0214 0.142578H8.76509V12.7341C8.76509 12.9031 8.76509 13.0702 8.75798 13.2353C8.75798 13.2558 8.75601 13.2748 8.75482 13.2969C8.75482 13.306 8.75482 13.3155 8.75285 13.325C8.75285 13.3273 8.75285 13.3297 8.75285 13.3321C8.71852 13.7839 8.5737 14.2203 8.33112 14.603C8.08854 14.9856 7.75563 15.3028 7.36169 15.5266C6.95112 15.7602 6.48675 15.8827 6.01438 15.8821C4.49723 15.8821 3.26762 14.645 3.26762 13.1172C3.26762 11.5894 4.49723 10.3523 6.01438 10.3523C6.30157 10.352 6.587 10.3972 6.86006 10.4862L6.86401 7.17063C6.03507 7.06355 5.19293 7.12943 4.39073 7.36411C3.58852 7.59879 2.84366 7.99718 2.20313 8.53414C1.64187 9.02179 1.17002 9.60365 0.808813 10.2535C0.671356 10.4905 0.152735 11.4428 0.0899316 12.9884C0.0504326 13.8657 0.313891 14.7746 0.439497 15.1502V15.1581C0.518495 15.3793 0.824612 16.1341 1.32348 16.7705C1.72576 17.2809 2.20103 17.7293 2.73399 18.1012V18.0933L2.74189 18.1012C4.3183 19.1724 6.06613 19.1021 6.06613 19.1021C6.36869 19.0898 7.38223 19.1021 8.53323 18.5566C9.80984 17.9519 10.5366 17.0509 10.5366 17.0509C11.0009 16.5126 11.3701 15.8991 11.6284 15.2367C11.923 14.4621 12.0214 13.5331 12.0214 13.1618V6.48177C12.0609 6.50547 12.587 6.85345 12.587 6.85345C12.587 6.85345 13.345 7.33929 14.5276 7.65568C15.376 7.88082 16.5191 7.92822 16.5191 7.92822V4.69563C16.1186 4.73907 15.3053 4.61268 14.4727 4.19754Z"
        fill="white" />
</svg>