<svg xmlns="http://www.w3.org/2000/svg" width="25" height="24" viewBox="0 0 25 24" fill="none">
    <path
        d="M17.1862 14C17.2662 13.34 17.3262 12.68 17.3262 12C17.3262 11.32 17.2662 10.66 17.1862 10H20.5662C20.7262 10.64 20.8262 11.31 20.8262 12C20.8262 12.69 20.7262 13.36 20.5662 14M15.4162 19.56C16.0162 18.45 16.4762 17.25 16.7962 16H19.7462C18.7773 17.6683 17.2403 18.932 15.4162 19.56ZM15.1662 14H10.4862C10.3862 13.34 10.3262 12.68 10.3262 12C10.3262 11.32 10.3862 10.65 10.4862 10H15.1662C15.2562 10.65 15.3262 11.32 15.3262 12C15.3262 12.68 15.2562 13.34 15.1662 14ZM12.8262 19.96C11.9962 18.76 11.3262 17.43 10.9162 16H14.7362C14.3262 17.43 13.6562 18.76 12.8262 19.96ZM8.82617 8H5.90617C6.86503 6.32721 8.40097 5.06149 10.2262 4.44C9.62617 5.55 9.17617 6.75 8.82617 8ZM5.90617 16H8.82617C9.17617 17.25 9.62617 18.45 10.2262 19.56C8.4048 18.9317 6.87102 17.6677 5.90617 16ZM5.08617 14C4.92617 13.36 4.82617 12.69 4.82617 12C4.82617 11.31 4.92617 10.64 5.08617 10H8.46617C8.38617 10.66 8.32617 11.32 8.32617 12C8.32617 12.68 8.38617 13.34 8.46617 14M12.8262 4.03C13.6562 5.23 14.3262 6.57 14.7362 8H10.9162C11.3262 6.57 11.9962 5.23 12.8262 4.03ZM19.7462 8H16.7962C16.4832 6.76146 16.0197 5.5659 15.4162 4.44C17.2562 5.07 18.7862 6.34 19.7462 8ZM12.8262 2C7.29617 2 2.82617 6.5 2.82617 12C2.82617 14.6522 3.87974 17.1957 5.7551 19.0711C6.68369 19.9997 7.78608 20.7362 8.99934 21.2388C10.2126 21.7413 11.513 22 12.8262 22C15.4783 22 18.0219 20.9464 19.8972 19.0711C21.7726 17.1957 22.8262 14.6522 22.8262 12C22.8262 10.6868 22.5675 9.38642 22.065 8.17317C21.5624 6.95991 20.8258 5.85752 19.8972 4.92893C18.9687 4.00035 17.8663 3.26375 16.653 2.7612C15.4398 2.25866 14.1394 2 12.8262 2Z"
        fill="#FC744A" />
</svg>