<svg xmlns="http://www.w3.org/2000/svg" width="21" height="17" viewBox="0 0 21 17" fill="none">
    <path
        d="M20.4201 2.45067C19.7831 2.72504 19.1135 2.9161 18.4277 3.01912C18.7483 2.96411 19.2201 2.3865 19.4079 2.1527C19.6932 1.80004 19.9106 1.39745 20.0491 0.96538C20.0491 0.93329 20.0812 0.887447 20.0491 0.864526C20.0329 0.855699 20.0148 0.851073 19.9964 0.851073C19.978 0.851073 19.9599 0.855699 19.9437 0.864526C19.1991 1.26813 18.4066 1.57618 17.585 1.78138C17.5563 1.79013 17.5258 1.79092 17.4968 1.78365C17.4677 1.77638 17.4412 1.76133 17.4201 1.74012C17.3561 1.66389 17.2873 1.59192 17.214 1.52466C16.8788 1.22414 16.4986 0.978173 16.0872 0.795762C15.5319 0.567732 14.9321 0.468977 14.333 0.506955C13.7518 0.543697 13.1843 0.69974 12.6659 0.96538C12.1553 1.24544 11.7066 1.62591 11.3468 2.08394C10.9682 2.55536 10.6949 3.10245 10.5452 3.68842C10.4218 4.2458 10.4078 4.82187 10.504 5.38459C10.504 5.48086 10.504 5.49461 10.4216 5.48086C7.1559 4.99951 4.4765 3.8397 2.28718 1.35046C2.191 1.24043 2.14061 1.24043 2.06275 1.35046C1.11008 2.79908 1.57267 5.0912 2.76352 6.22351C2.92382 6.37479 3.08871 6.52148 3.26276 6.65901C2.71676 6.62021 2.1841 6.47212 1.69634 6.22351C1.60473 6.16391 1.55435 6.196 1.54977 6.30602C1.53679 6.45856 1.53679 6.61192 1.54977 6.76445C1.64534 7.49545 1.93317 8.18793 2.38382 8.77108C2.83448 9.35423 3.43178 9.80712 4.11467 10.0834C4.28114 10.1548 4.4546 10.2086 4.63223 10.2439C4.12677 10.3435 3.60836 10.359 3.09787 10.2897C2.98795 10.2668 2.94672 10.3264 2.98795 10.4318C3.66123 12.2655 5.12231 12.8248 6.19407 13.1365C6.34063 13.1595 6.4872 13.1595 6.65208 13.1961C6.65208 13.1961 6.65208 13.1961 6.6246 13.2236C6.30857 13.8013 5.0307 14.1909 4.44444 14.3926C3.37436 14.7773 2.23346 14.9244 1.10091 14.8236C0.922288 14.796 0.881066 14.8006 0.835265 14.8236C0.789463 14.8465 0.835265 14.8969 0.885647 14.9427C1.11466 15.094 1.34366 15.227 1.58183 15.3553C2.29086 15.7424 3.04045 16.0499 3.81696 16.2722C7.83835 17.3816 12.3636 16.5656 15.3819 13.5629C17.7544 11.2066 18.588 7.95635 18.588 4.70154C18.588 4.57776 18.7392 4.50442 18.8262 4.44024C19.4264 3.97214 19.9556 3.41932 20.3972 2.79908C20.4737 2.70662 20.5129 2.5889 20.5071 2.46901C20.5071 2.40025 20.5071 2.414 20.4201 2.45067Z"
        fill="white" />
</svg>