<svg xmlns="http://www.w3.org/2000/svg" width="23" height="17" viewBox="0 0 23 17" fill="none">
    <path fill-rule="evenodd" clip-rule="evenodd"
        d="M19.6834 1.36664C20.6314 1.62266 21.3765 2.36965 21.6283 3.31654C22.0866 5.03497 22.0866 8.62263 22.0866 8.62263C22.0866 8.62263 22.0866 12.2103 21.6283 13.9287C21.373 14.8791 20.6279 15.6261 19.6834 15.8786C17.9693 16.338 11.0921 16.338 11.0921 16.338C11.0921 16.338 4.21839 16.338 2.50084 15.8786C1.55286 15.6226 0.807766 14.8756 0.555904 13.9287C0.0976562 12.2103 0.0976562 8.62263 0.0976562 8.62263C0.0976562 8.62263 0.0976562 5.03497 0.555904 3.31654C0.811264 2.36614 1.55635 1.61915 2.50084 1.36664C4.21839 0.907227 11.0921 0.907227 11.0921 0.907227C11.0921 0.907227 17.9693 0.907227 19.6834 1.36664ZM14.294 8.28934L9.18333 5.45006V11.6965L14.294 8.28934Z"
        fill="white" />
</svg>