<svg xmlns="http://www.w3.org/2000/svg" width="25" height="25" viewBox="0 0 25 25" fill="none">
    <path
        d="M15.5895 11.9199L11.0895 8.91994C11.0048 8.86339 10.9062 8.83092 10.8044 8.82601C10.7027 8.8211 10.6015 8.84393 10.5116 8.89206C10.4218 8.9402 10.3468 9.01182 10.2945 9.09929C10.2422 9.18676 10.2147 9.28679 10.2148 9.38869V15.3887C10.2147 15.4906 10.2422 15.5906 10.2945 15.6781C10.3468 15.7656 10.4218 15.8372 10.5116 15.8853C10.6015 15.9335 10.7027 15.9563 10.8044 15.9514C10.9062 15.9465 11.0048 15.914 11.0895 15.8574L15.5895 12.8574C15.6669 12.8061 15.7303 12.7365 15.7742 12.6547C15.8181 12.5729 15.8411 12.4815 15.8411 12.3887C15.8411 12.2959 15.8181 12.2045 15.7742 12.1227C15.7303 12.0409 15.6669 11.9713 15.5895 11.9199ZM11.3398 14.3378V10.4396L14.263 12.3887L11.3398 14.3378ZM22.0648 6.95119C21.9835 6.63498 21.8281 6.3426 21.6117 6.09813C21.3953 5.85365 21.1239 5.66406 20.8198 5.54494C17.6211 4.3065 12.4902 4.32619 12.2773 4.32619C12.0645 4.32619 6.93359 4.3065 3.73109 5.54494C3.42777 5.66454 3.15713 5.85435 2.94136 6.0988C2.7256 6.34325 2.57086 6.63537 2.48984 6.95119C2.25078 7.87838 1.96484 9.57619 1.96484 12.3887C1.96484 15.2012 2.25078 16.899 2.48984 17.8262C2.57124 18.1424 2.72654 18.4348 2.94298 18.6793C3.15943 18.9237 3.43082 19.1133 3.73484 19.2324C6.93359 20.4709 12.0636 20.4512 12.2773 20.4512H12.3439C12.9917 20.4512 17.7814 20.4099 20.8236 19.2324C21.1276 19.1133 21.399 18.9237 21.6155 18.6793C21.8319 18.4348 21.9872 18.1424 22.0686 17.8262C22.3077 16.9009 22.5936 15.2078 22.5936 12.3887C22.5936 9.56963 22.3086 7.87838 22.0648 6.95119ZM20.9755 17.5449C20.9394 17.689 20.8695 17.8225 20.7717 17.9343C20.6739 18.0461 20.551 18.1331 20.413 18.1881C17.413 19.344 12.3317 19.3262 12.2773 19.3262C12.223 19.3262 7.14828 19.3449 4.14453 18.1853C4.00652 18.1303 3.88356 18.0433 3.78576 17.9315C3.68796 17.8197 3.61813 17.6862 3.58203 17.5421C3.35609 16.6806 3.08984 15.0868 3.08984 12.3887C3.08984 9.69057 3.35609 8.09682 3.57922 7.23244C3.61532 7.08834 3.68515 6.95489 3.78294 6.84307C3.88074 6.73126 4.00371 6.64428 4.14172 6.58932C7.03297 5.47557 11.8583 5.45119 12.2548 5.45119H12.2773C12.328 5.45119 17.4064 5.43244 20.4102 6.59213C20.5482 6.64709 20.6711 6.73407 20.7689 6.84589C20.8667 6.9577 20.9366 7.09116 20.9727 7.23525C21.1958 8.09682 21.462 9.69057 21.462 12.3915C21.462 15.0924 21.1986 16.6806 20.9755 17.5449Z"
        fill="black" />
</svg>